HIERARCHY
ROOT Hips
{
	OFFSET 48.685001 -4.718725 94.317497
	CHANNELS 6 Xposition Yposition Zposition Xrotation Yrotation Zrotation
	JOINT spine
	{
		OFFSET 0.000000 -0.448575 7.800591
		CHANNELS 3 Xrotation Yrotation Zrotation
		JOINT spine1
		{
			OFFSET 0.000000 -0.000001 10.136398
			CHANNELS 3 Xrotation Yrotation Zrotation
			JOINT spine2
			{
				OFFSET 0.000000 -0.000002 9.712509
				CHANNELS 3 Xrotation Yrotation Zrotation
				JOINT Neck
				{
					OFFSET 0.000000 -1.188874 24.936096
					CHANNELS 3 Xrotation Yrotation Zrotation
					JOINT Head
					{
						OFFSET 0.000000 -0.000001 7.533844
						CHANNELS 3 Xrotation Yrotation Zrotation
						End Site
						{
							OFFSET 0.000000 6.014017 18.236099
						}
					}
				}
				JOINT RightShoulder
				{
					OFFSET -4.089649 0.569456 10.488800
					CHANNELS 3 Xrotation Yrotation Zrotation
					JOINT RightArm
					{
						OFFSET 0.000000 -0.000002 13.757004
						CHANNELS 3 Xrotation Yrotation Zrotation
						JOINT RightArmRoll
						{
							OFFSET 0.000000 -0.000001 6.944778
							CHANNELS 3 Xrotation Yrotation Zrotation
							JOINT RightForeArm
							{
								OFFSET 0.000000 -0.000003 20.227707
								CHANNELS 3 Xrotation Yrotation Zrotation
								JOINT RightForeArmRoll
								{
									OFFSET 0.000000 -0.000001 7.793121
									CHANNELS 3 Xrotation Yrotation Zrotation
									JOINT RightHand
									{
										OFFSET 0.000000 -0.000002 15.639099
										CHANNELS 3 Xrotation Yrotation Zrotation
										End Site
										{
											OFFSET 0.000000 0.000000 0.100006
										}
									}
								}
							}
						}
					}
				}
				JOINT LeftShoulder
				{
					OFFSET 4.089649 0.569456 10.488800
					CHANNELS 3 Xrotation Yrotation Zrotation
					JOINT LeftArm
					{
						OFFSET 0.000000 -0.000002 13.757004
						CHANNELS 3 Xrotation Yrotation Zrotation
						JOINT LeftArmRoll
						{
							OFFSET 0.000000 -0.000001 6.944778
							CHANNELS 3 Xrotation Yrotation Zrotation
							JOINT LeftForeArm
							{
								OFFSET 0.000000 -0.000003 20.227707
								CHANNELS 3 Xrotation Yrotation Zrotation
								JOINT LeftForeArmRoll
								{
									OFFSET 0.000000 -0.000001 7.793121
									CHANNELS 3 Xrotation Yrotation Zrotation
									JOINT LeftHand
									{
										OFFSET 0.000000 -0.000002 15.639099
										CHANNELS 3 Xrotation Yrotation Zrotation
										End Site
										{
											OFFSET 0.000000 0.000000 0.100006
										}
									}
								}
							}
						}
					}
				}
			}
		}
	}
	JOINT RightUpLeg
	{
		OFFSET -6.914158 1.063580 -1.267883
		CHANNELS 3 Xrotation Yrotation Zrotation
		JOINT RightUpLegRoll
		{
			OFFSET 0.000000 -0.000003 18.337799
			CHANNELS 3 Xrotation Yrotation Zrotation
			JOINT RightLeg
			{
				OFFSET 0.000000 0.000004 -22.708504
				CHANNELS 3 Xrotation Yrotation Zrotation
				JOINT RightLegRoll
				{
					OFFSET 0.000000 -0.000004 22.782799
					CHANNELS 3 Xrotation Yrotation Zrotation
					JOINT RightFoot
					{
						OFFSET 0.000000 -0.000003 18.962898
						CHANNELS 3 Xrotation Yrotation Zrotation
						JOINT RightToeBase
						{
							OFFSET 0.000000 -0.000003 15.852005
							CHANNELS 3 Xrotation Yrotation Zrotation
							End Site
							{
								OFFSET 0.006718 0.884892 7.677017
							}
						}
					}
				}
			}
		}
	}
	JOINT LeftUpLeg
	{
		OFFSET 6.914158 1.063580 -1.267883
		CHANNELS 3 Xrotation Yrotation Zrotation
		JOINT LeftUpLegRoll
		{
			OFFSET 0.000000 -0.000003 18.337898
			CHANNELS 3 Xrotation Yrotation Zrotation
			JOINT LeftLeg
			{
				OFFSET 0.000000 -0.000004 22.708405
				CHANNELS 3 Xrotation Yrotation Zrotation
				JOINT LeftLegRoll
				{
					OFFSET 0.000000 -0.000004 22.993408
					CHANNELS 3 Xrotation Yrotation Zrotation
					JOINT LeftFoot
					{
						OFFSET 0.000000 -0.000003 18.752197
						CHANNELS 3 Xrotation Yrotation Zrotation
						JOINT LeftToeBase
						{
							OFFSET 0.000000 -0.000003 15.852005
							CHANNELS 3 Xrotation Yrotation Zrotation
							End Site
							{
								OFFSET -0.030113 0.884892 7.677002
							}
						}
					}
				}
			}
		}
	}
}
MOTION
Frames: 13
Frame Time: 0.041667
46.256805 -10.479115 102.209000 2.154923 -0.878541 0.150602 0.035848 0.264811 0.043163 4.074494 0.529993 0.083729 5.719617 0.530960 0.077374 -6.968239 11.489108 -1.572515 -2.284871 -11.278458 -3.180858 -17.146604 -59.770138 -20.286616 65.884196 -117.087037 59.230233 -0.000002 -0.000000 -0.000001 73.582591 -3.805249 -0.087031 -0.000001 0.000003 -2.999999 -5.000253 -7.998941 0.000113 -19.718449 59.380469 23.302840 62.438748 120.286571 -68.365822 0.000000 0.000014 0.000002 71.454140 4.454896 2.010615 -0.000009 -0.000004 3.000000 -5.000223 7.999909 -0.000041 -16.394599 -178.897708 -2.203306 -179.999991 0.000005 -1.040998 152.880520 0.828663 -0.888622 -0.000003 -0.000003 0.396477 69.292406 6.810922 2.305988 24.877934 -7.355198 -0.073283 -15.261668 179.264872 2.149764 -0.000003 -0.000005 -1.044900 -29.174279 6.400175 2.341497 -0.000002 -0.000005 -0.410228 68.418114 -6.688540 -2.657900 24.878745 7.355269 0.066374 
46.219006 -10.511916 101.887001 2.145379 -0.889497 0.226910 0.037325 0.283390 0.028330 4.077540 0.566999 0.053885 5.722661 0.567605 0.047089 -6.795978 11.242898 -1.594886 -2.477862 -11.096374 -3.166307 -17.202537 -60.243464 -20.359500 65.819029 -116.779064 59.643787 0.000001 -0.000002 -0.000001 73.149796 -3.990332 0.044543 -0.000002 0.000004 -3.000001 -5.000257 -7.998945 0.000114 -19.596202 59.420419 23.156505 61.564135 120.167562 -67.869630 0.000003 0.000016 0.000001 70.976887 4.489458 1.918284 -0.000012 -0.000003 2.999999 -5.000224 7.999907 -0.000041 -16.421528 -178.875783 -2.130297 -179.999991 0.000005 -1.043006 152.603843 0.779544 -0.910009 -0.000001 -0.000003 0.392915 69.187808 6.805173 2.325955 24.699038 -7.354920 -0.095920 -15.415979 179.324212 2.196001 -0.000004 -0.000004 -1.040730 -29.332387 6.365296 2.349581 -0.000004 -0.000005 -0.407365 68.376498 -6.661702 -2.718985 24.700052 7.355041 0.086886 
46.180702 -10.442414 101.495010 2.135951 -0.898768 0.304482 0.040357 0.301442 0.012910 4.083686 0.602939 0.022853 5.728819 0.603170 0.015628 -6.632440 10.998126 -1.615959 -2.675605 -10.914578 -3.151910 -17.261515 -60.723476 -20.434968 65.737572 -116.444562 60.054288 -0.000002 0.000002 0.000001 72.703389 -4.176437 0.173498 -0.000003 0.000005 -3.000001 -5.000253 -7.998946 0.000114 -19.469524 59.466994 23.005076 60.654539 120.032105 -67.364168 -0.000001 0.000015 -0.000001 70.492142 4.518708 1.827268 -0.000011 -0.000003 2.999999 -5.000226 7.999908 -0.000041 -16.462771 -178.853011 -2.049116 -179.999991 0.000005 -1.045000 152.285788 0.724174 -0.933588 -0.000002 -0.000003 0.389814 69.081339 6.799542 2.345757 24.528420 -7.354600 -0.117510 -15.590812 179.380657 2.229384 -0.000005 -0.000004 -1.036900 -29.540800 6.332071 2.361695 -0.000003 -0.000005 -0.405162 68.338577 -6.636126 -2.776564 24.529752 7.354767 0.106438 
46.142506 -10.458117 101.158005 2.127519 -0.905062 0.381670 0.044623 0.318429 -0.002728 4.092304 0.636740 -0.008623 5.737447 0.636593 -0.016251 -6.476628 10.760020 -1.635903 -2.878917 -10.737049 -3.138495 -17.322908 -61.203932 -20.512093 65.624184 -116.086756 60.444422 -0.000004 0.000000 -0.000000 72.240431 -4.362755 0.299269 -0.000003 0.000004 -2.999999 -5.000254 -7.998943 0.000113 -19.339226 59.522496 22.849672 59.709657 119.880789 -66.845975 -0.000002 0.000013 -0.000000 70.001741 4.541243 1.738680 -0.000009 -0.000002 3.000000 -5.000225 7.999906 -0.000039 -16.519711 -178.832275 -1.962278 -179.999991 0.000005 -1.048005 151.927969 0.662660 -0.958606 -0.000003 -0.000003 0.387555 68.978477 6.794501 2.363745 24.379027 -7.354254 -0.136415 -15.785073 179.433209 2.248984 -0.000005 -0.000005 -1.033680 -29.797383 6.300551 2.377512 -0.000004 -0.000005 -0.403877 68.308278 -6.613915 -2.826315 24.380449 7.354491 0.123579 
46.138008 -10.387814 100.737007 2.120956 -0.907080 0.456829 0.049805 0.333815 -0.018214 4.102749 0.667336 -0.039797 5.747900 0.666813 -0.047789 -6.327564 10.533794 -1.654935 -3.088621 -10.567676 -3.126955 -17.385845 -61.678487 -20.589769 65.472219 -115.707298 60.806954 -0.000002 0.000000 -0.000000 71.757523 -4.548742 0.421608 -0.000003 0.000003 -2.999999 -5.000254 -7.998942 0.000113 -19.205812 59.588906 22.690995 58.732332 119.713327 -66.315154 0.000001 0.000015 -0.000000 69.507413 4.555720 1.653626 -0.000009 -0.000003 3.000001 -5.000225 7.999908 -0.000040 -16.594011 -178.818341 -1.871764 -179.999991 0.000005 -1.050000 151.531408 0.596899 -0.985344 -0.000002 -0.000003 0.386522 68.884548 6.790548 2.378767 24.263163 -7.353963 -0.151076 -15.997657 179.480911 2.253842 -0.000004 -0.000005 -1.031330 -30.099831 6.270808 2.396727 -0.000004 -0.000005 -0.403766 68.289543 -6.597027 -2.863488 24.264793 7.354253 0.136856 
46.090908 -10.379015 100.375000 2.117155 -0.903520 0.528311 0.055587 0.347064 -0.033179 4.114392 0.693657 -0.069918 5.759543 0.692771 -0.078224 -6.184233 10.324876 -1.673267 -3.305545 -10.410235 -3.118216 -17.449293 -62.140802 -20.666764 65.266453 -115.309385 61.125378 -0.000000 -0.000001 -0.000001 71.251598 -4.733627 0.539512 -0.000004 0.000004 -3.000000 -5.000252 -7.998942 0.000114 -19.069938 59.668471 22.529987 57.726751 119.528625 -65.773267 0.000000 0.000014 0.000001 69.010804 4.560681 1.573260 -0.000008 -0.000003 3.000001 -5.000224 7.999911 -0.000041 -16.687066 -178.813150 -1.780338 -179.999991 0.000005 -1.053005 151.097636 0.529649 -1.012595 -0.000002 -0.000003 0.387098 68.804997 6.787992 2.389569 24.193671 -7.353769 -0.159873 -16.227558 179.523763 2.242788 -0.000004 -0.000005 -1.030100 -30.445910 6.242906 2.419037 -0.000002 -0.000005 -0.405085 68.286353 -6.587513 -2.883547 24.195407 7.354101 0.144820 
46.047409 -10.399016 100.000000 2.116999 -0.893073 0.594471 0.061650 0.357641 -0.047251 4.126580 0.714638 -0.098236 5.771740 0.713413 -0.106791 -6.045622 10.138186 -1.691198 -3.530532 -10.268596 -3.113275 -17.512241 -62.584791 -20.741912 64.996101 -114.894915 61.388320 -0.000000 -0.000000 -0.000000 70.719348 -4.916901 0.653013 0.000004 0.000003 -3.000000 -5.000250 -7.998944 0.000114 -18.932128 59.763220 22.367382 56.692640 119.327175 -65.216832 -0.000003 0.000016 0.000003 68.513662 4.554580 1.498592 -0.000010 -0.000004 2.999999 -5.000225 7.999910 -0.000042 -16.800553 -178.819612 -1.690481 -179.999991 0.000005 -1.056994 150.627965 0.461008 -1.040535 -0.000001 -0.000003 0.389665 68.745342 6.787385 2.394621 24.183157 -7.353739 -0.161207 -16.473585 179.558884 2.215461 -0.000004 -0.000004 -1.030270 -30.833321 6.216899 2.444165 -0.000001 -0.000005 -0.408091 68.302568 -6.587389 -2.881957 24.184901 7.354066 0.146025 
46.006008 -10.413916 99.628517 2.121359 -0.874432 0.653658 0.067672 0.365012 -0.060058 4.138696 0.729216 -0.123996 5.783849 0.727680 -0.132724 -5.910701 9.979244 -1.709006 -3.764429 -10.146520 -3.113181 -17.573281 -63.004124 -20.813673 64.643888 -114.467612 61.577393 -0.000000 0.000000 -0.000000 70.157606 -5.097844 0.761173 0.000004 0.000004 -3.000000 -5.000255 -7.998945 0.000113 -18.792938 59.875351 22.203965 55.631279 119.108882 -64.644243 -0.000002 0.000015 -0.000000 68.017667 4.535898 1.430610 -0.000008 -0.000006 3.000000 -5.000223 7.999909 -0.000042 -16.936052 -178.840539 -1.604627 -179.999991 0.000005 -1.060997 150.123829 0.392801 -1.067354 -0.000001 -0.000003 0.394607 68.710842 6.789196 2.392676 24.244270 -7.353908 -0.153469 -16.734633 179.586287 2.170690 -0.000004 -0.000004 -1.032090 -31.259751 6.192859 2.471837 -0.000005 -0.000004 -0.413042 68.342087 -6.598624 -2.854152 24.245903 7.354208 0.139025 
45.945503 -10.390314 99.187004 2.131132 -0.846284 0.704217 0.073337 0.368642 -0.071229 4.150064 0.736328 -0.146442 5.795219 0.734523 -0.155253 -5.778440 9.853112 -1.727008 -4.008105 -10.047772 -3.119069 -17.630935 -63.392550 -20.880517 64.196757 -114.029906 61.679190 0.000001 0.000000 -0.000000 69.563189 -5.275918 0.863613 0.000003 0.000003 -3.000000 -5.000254 -7.998945 0.000114 -18.652895 60.007009 22.040455 54.546765 118.872353 -64.057148 0.000000 0.000013 -0.000001 67.524616 4.503008 1.370142 -0.000007 -0.000003 3.000002 -5.000227 7.999908 -0.000040 -17.095038 -178.880728 -1.524564 -179.999991 0.000005 -1.065996 149.586361 0.325990 -1.094637 -0.000001 -0.000003 0.402307 68.707072 6.793730 2.382462 24.389530 -7.354280 -0.135088 -17.009599 179.604114 2.107898 -0.000005 -0.000004 -1.035840 -31.723097 6.170839 2.501836 -0.000006 -0.000005 -0.420192 68.409010 -6.623172 -2.795450 24.390961 7.354518 0.122372 
45.892509 -10.423416 98.828606 2.147185 -0.807325 0.744485 0.078328 0.367997 -0.080391 4.160074 0.734915 -0.164818 5.805227 0.732891 -0.173611 -5.647799 9.765070 -1.745578 -4.262428 -9.976191 -3.132153 -17.683558 -63.743806 -20.940726 63.636674 -113.585616 61.675030 -0.000002 -0.000001 -0.000000 68.932871 -5.450452 0.959877 0.000004 0.000005 -3.000001 -5.000250 -7.998943 0.000114 -18.512427 60.160293 21.877480 53.438782 118.617805 -63.452034 0.000001 0.000016 0.000001 67.036326 4.454205 1.318085 -0.000010 -0.000004 2.999999 -5.000220 7.999909 -0.000043 -17.279221 -178.941981 -1.452910 -179.999991 0.000005 -1.070996 149.017229 0.262342 -1.119472 -0.000004 -0.000003 0.413148 68.739352 6.801505 2.362648 24.631658 -7.354802 -0.104443 -17.297389 179.612364 2.025925 -0.000004 -0.000004 -1.041760 -32.221052 6.150906 2.533922 -0.000005 -0.000005 -0.429800 68.507330 -6.662723 -2.701086 24.632777 7.354935 0.094619 
45.907608 -10.244816 98.351906 2.170419 -0.756251 0.772789 0.082321 0.362544 -0.087172 4.168083 0.723917 -0.178368 5.813224 0.721731 -0.187028 -5.517767 9.720341 -1.765084 -4.528260 -9.935585 -3.153753 -17.729496 -64.051820 -20.992634 62.945965 -113.138402 61.547040 -0.000001 0.000001 0.000000 68.263260 -5.620908 1.049471 0.000002 0.000004 -3.000001 -5.000251 -7.998944 0.000114 -18.372097 60.337461 21.715787 52.308713 118.344967 -62.827352 0.000002 0.000018 -0.000001 66.554360 4.387848 1.275329 -0.000008 -0.000006 2.999999 -5.000225 7.999909 -0.000040 -17.490079 -179.028096 -1.391608 -179.999991 0.000005 -1.077006 148.417470 0.203599 -1.141826 0.000000 -0.000003 0.427513 68.813179 6.812886 2.331737 24.983186 -7.355330 -0.059963 -17.596907 179.608239 1.924531 -0.000004 -0.000004 -1.050120 -32.751307 6.133133 2.567860 -0.000004 -0.000005 -0.442121 68.640976 -6.719074 -2.566395 24.983903 7.355368 0.054304 
45.823601 -10.241012 97.942314 2.201697 -0.691770 0.787443 0.085001 0.351749 -0.091201 4.173434 0.702275 -0.186337 5.818576 0.699995 -0.194737 -5.387307 9.724149 -1.785972 -4.806551 -9.929550 -3.185270 -17.766825 -64.310165 -21.034269 62.106152 -112.692780 61.276578 0.000000 -0.000001 -0.000001 67.551233 -5.786663 1.131616 0.000002 0.000005 -3.000000 -5.000252 -7.998944 0.000114 -18.232254 60.540495 21.555860 51.158721 118.052512 -62.182493 0.000000 0.000015 -0.000001 66.080612 4.302136 1.242693 -0.000009 -0.000002 2.999999 -5.000225 7.999909 -0.000040 -17.729335 -179.141778 -1.342805 -179.999991 0.000005 -1.083003 147.788778 0.150607 -1.161115 0.000000 -0.000003 0.445784 68.933937 6.828243 2.288469 25.456957 -7.355616 0.000001 -17.907057 179.590836 1.802901 -0.000003 -0.000004 -1.061190 -33.311662 6.117609 2.603477 -0.000006 -0.000005 -0.457412 68.814176 -6.793564 -2.386547 25.456960 7.355615 -0.000001 
45.685005 -10.395811 97.532715 2.241635 -0.607893 0.788405 0.086564 0.334001 -0.092329 4.176533 0.666770 -0.188412 5.821653 0.664468 -0.196387 -5.245121 9.785515 -1.810339 -5.116967 -9.964736 -3.230951 -17.793184 -64.523779 -21.063323 61.113343 -112.238101 60.872599 -0.000002 -0.000001 -0.000000 66.781724 -5.954245 1.211829 0.000005 0.000004 -3.000000 -5.000253 -7.998944 0.000114 -18.083076 60.780528 21.386398 49.969370 117.729730 -61.519568 0.000000 0.000016 -0.000000 65.601658 4.193132 1.218911 -0.000008 -0.000003 3.000000 -5.000224 7.999909 -0.000042 -18.007415 -179.289583 -1.302361 -179.999991 0.000005 -1.090995 147.106634 0.097403 -1.178003 -0.000001 -0.000003 0.467041 69.084235 6.849956 2.228920 26.108132 -7.355222 0.082399 -18.238859 179.552655 1.652233 -0.000004 -0.000004 -1.075600 -33.927705 6.104899 2.643760 -0.000004 -0.000005 -0.475356 69.017832 -6.889360 -2.149743 26.101059 7.355319 -0.073989 
